<svg width="100" height="110" viewBox="0 0 100 110" fill="none" xmlns="http://www.w3.org/2000/svg">
<circle cx="50" cy="50" r="50" fill="#EC008C"/>
<g clip-path="url(#clip0_754_6765)">
<g clip-path="url(#clip1_754_6765)">
<path d="M68.762 60.7225L59.0604 51.0204C58.5666 50.5265 57.9126 50.731 58.0292 50.7078C56.9729 50.9183 56.0047 50.2679 55.3971 49.7115L59.3939 45.7146C62.1413 46.4626 65.1189 45.6913 67.157 43.6531C69.5502 41.2599 70.1781 37.6012 68.7196 34.5493C68.3797 33.8381 67.4375 33.6773 66.8808 34.234L63.1929 37.9219L61.8666 37.6319L61.5774 36.3058L65.2649 32.6181C65.8224 32.0607 65.66 31.1186 64.9496 30.7791C61.8965 29.3204 58.238 29.9483 55.8461 32.3417C53.808 34.3799 53.0369 37.358 53.7851 40.1058L48.0032 45.8879L40.1674 38.0518L41.2447 36.9745C41.7332 36.4861 41.6792 35.6783 41.1308 35.2589L36.5526 31.7578C36.0977 31.4099 35.4555 31.4526 35.0506 31.8575L32.3575 34.5507C31.9526 34.9556 31.9099 35.5979 32.2578 36.0527L35.7588 40.6311C36.178 41.1794 36.9852 41.234 37.4743 40.745L38.5515 39.6678L46.3873 47.5039L40.6054 53.286C37.8574 52.5379 34.8797 53.3089 32.8419 55.3468C30.4484 57.7391 29.8204 61.3977 31.2791 64.4508C31.6187 65.1618 32.5609 65.323 33.1179 64.7661L36.8055 61.0784L38.1315 61.3676L38.4216 62.694L34.7337 66.382C34.1765 66.9392 34.3384 67.8814 35.049 68.2209C38.1018 69.68 41.7602 69.0509 44.1526 66.6583C46.1908 64.62 46.962 61.6422 46.2141 58.8948L50.2099 54.8988C51.5784 56.3964 51.2068 57.5315 51.2068 57.5315C51.134 57.8982 51.2476 58.2892 51.5197 58.5613L61.2213 68.2633C62.2031 69.245 63.8004 69.245 64.7819 68.2633L68.7618 64.2833C69.746 63.2992 69.7461 61.7065 68.762 60.7225ZM34.6807 35.4592L35.9591 34.1808L38.706 36.2815L36.7813 38.2063L34.6807 35.4592ZM43.8435 58.9833C44.6335 61.0801 44.1207 63.4585 42.5368 65.0424C41.2445 66.3347 39.4366 66.9065 37.6888 66.6588L40.4793 63.8681C40.7546 63.5929 40.8707 63.1964 40.7876 62.816L40.2075 60.1633C40.1121 59.727 39.7712 59.3862 39.3348 59.291L36.6827 58.7125C36.3027 58.6294 35.9064 58.7458 35.6313 59.0209L32.8413 61.811C32.5934 60.0633 33.1652 58.2546 34.4576 56.9628C36.0414 55.379 38.4199 54.8664 40.5169 55.6566C40.9368 55.8149 41.4106 55.7127 41.7278 55.3954L55.8945 41.2281C56.2119 40.9108 56.3141 40.4371 56.1558 40.0172C55.3655 37.92 55.8782 35.5413 57.4622 33.9573C58.7539 32.6649 60.5626 32.0933 62.31 32.3411L59.52 35.1314C59.2449 35.4064 59.1286 35.8027 59.2116 36.1828L59.79 38.835C59.8852 39.2714 60.226 39.6124 60.6623 39.7078L63.3149 40.2879C63.6952 40.3709 64.0917 40.2548 64.3669 39.9796L67.1575 37.189C67.4051 38.9363 66.8333 40.7449 65.5411 42.0372C63.9572 43.6211 61.5791 44.1341 59.4822 43.3439C59.0623 43.1857 58.5886 43.2879 58.2714 43.6052C58.138 43.7386 44.4506 57.4266 44.1047 57.7724C43.7874 58.0897 43.6852 58.5634 43.8435 58.9833ZM53.7815 51.3271C54.2801 51.7924 54.9689 52.3191 55.8018 52.6632L53.1621 55.3031C52.818 54.4701 52.2915 53.7809 51.8264 53.2824L53.7815 51.3271ZM67.1461 62.6674L63.1663 66.6474C63.0755 66.7381 62.928 66.7381 62.8373 66.6474L53.9435 57.7534L58.2524 53.4442L67.1461 62.3383C67.2372 62.4294 67.2372 62.5762 67.1461 62.6674Z" fill="white"/>
</g>
</g>
<defs>
<clipPath id="clip0_754_6765">
<rect width="40" height="40" fill="white" transform="translate(30 30)"/>
</clipPath>
<clipPath id="clip1_754_6765">
<rect width="40" height="40" fill="white" transform="translate(30.5 30)"/>
</clipPath>
</defs>
</svg>
